<?xml version="1.0" standalone="no"?>
<!DOCTYPE svg PUBLIC "-//W3C//DTD SVG 20010904//EN"
 "http://www.w3.org/TR/2001/REC-SVG-20010904/DTD/svg10.dtd">
<svg version="1.0" xmlns="http://www.w3.org/2000/svg"
 width="300.000000pt" height="198.000000pt" viewBox="0 0 300.000000 198.000000"
 preserveAspectRatio="xMidYMid meet">
<metadata>
Created by potrace 1.10, written by Peter Selinger 2001-2011
</metadata>
<g transform="translate(0.000000,198.000000) scale(0.100000,-0.100000)"
fill="#000000" stroke="none">
<path d="M1487 1507 c-7 -7 -29 -34 -47 -62 -19 -27 -48 -71 -66 -98 -35 -51
-50 -116 -39 -166 4 -17 22 -55 41 -83 39 -57 40 -77 1 -26 -88 117 -86 190 9
329 30 44 54 85 51 92 -3 11 -89 -109 -121 -170 -23 -45 -21 -136 4 -187 23
-48 119 -170 128 -162 3 4 -5 17 -18 31 -13 14 -21 27 -18 30 3 3 17 -10 32
-29 27 -36 33 -52 16 -41 -5 3 -10 0 -10 -7 -1 -22 -108 103 -140 163 -52 99
-43 157 49 312 36 59 15 43 -25 -20 -61 -95 -77 -140 -71 -194 8 -67 44 -131
127 -227 40 -46 70 -85 67 -88 -8 -9 -141 143 -177 202 -31 51 -35 66 -35 124
0 63 16 114 51 160 7 8 15 26 19 40 6 19 1 16 -19 -13 -14 -21 -26 -42 -26
-48 0 -5 -6 -12 -14 -15 -38 -15 -48 -191 -12 -226 7 -8 25 -31 39 -53 15 -22
34 -50 43 -62 9 -13 12 -23 6 -23 -5 0 -27 25 -47 55 -42 60 -54 71 -31 28 20
-40 88 -115 149 -164 41 -34 46 -36 23 -11 -31 33 -26 44 6 15 25 -23 45 -25
53 -5 3 9 3 13 -1 9 -8 -8 -34 11 -34 25 0 6 7 5 15 -2 13 -11 14 -10 9 5 -5
13 -4 16 4 11 24 -15 10 13 -39 78 -109 145 -114 200 -24 311 40 49 75 114 75
137 0 10 5 18 10 18 6 0 10 -7 10 -15 0 -24 39 -95 76 -141 38 -46 64 -102 64
-136 -1 -36 -34 -101 -89 -174 -48 -63 -63 -93 -41 -79 5 3 7 -8 5 -28 -3 -25
-1 -34 11 -34 20 0 158 139 185 187 12 22 26 37 31 34 5 -3 8 -2 7 3 -1 4 2
19 8 33 15 36 9 139 -11 184 -10 21 -31 53 -48 70 l-30 31 28 -50 c15 -27 31
-55 36 -61 5 -7 11 -34 15 -62 7 -60 -12 -121 -57 -187 -38 -55 -151 -178
-157 -171 -3 3 27 42 67 88 143 165 160 248 79 382 -21 36 -39 71 -39 79 0 7
-7 14 -15 14 -12 0 -11 -7 7 -36 90 -146 100 -212 48 -310 -32 -60 -139 -185
-140 -163 0 7 -4 10 -10 7 -17 -11 -11 5 16 41 15 19 29 32 32 29 3 -3 -5 -16
-18 -30 -13 -14 -21 -27 -18 -31 9 -8 105 114 128 162 23 47 26 130 6 177 -22
52 -114 188 -119 175 -2 -7 20 -48 49 -90 77 -113 89 -169 53 -248 -22 -50
-68 -114 -76 -106 -3 2 7 20 21 38 78 102 74 184 -14 302 -27 37 -55 80 -62
96 -15 35 -31 43 -51 27z m-100 -554 c24 -22 13 -24 -17 -3 -16 12 -30 26 -30
32 0 10 18 -1 47 -29z"/>
<path d="M1439 1271 c-31 -31 -39 -83 -19 -122 12 -21 49 -26 67 -8 8 8 18 6
36 -6 24 -16 27 -15 46 4 31 31 28 91 -5 130 -35 42 -84 43 -125 2z m94 -13
c21 -16 31 -68 18 -88 -9 -12 -14 -13 -31 -2 -16 10 -24 10 -40 0 -17 -11 -22
-10 -30 2 -16 24 -11 59 10 80 23 23 49 26 73 8z"/>
<path d="M1728 1059 c-2 -5 -45 -52 -97 -103 -58 -58 -89 -96 -82 -100 6 -4
10 -3 9 2 -3 9 162 177 172 175 3 -1 7 7 7 18 2 21 -3 25 -9 8z"/>
<path d="M1675 956 c-22 -23 -56 -54 -75 -68 -19 -15 -32 -27 -29 -28 3 0 20
11 39 25 19 14 39 25 44 25 14 0 -29 -39 -83 -73 -24 -16 -48 -42 -54 -58 -14
-36 -23 -37 -31 -4 -6 25 -136 131 -136 111 0 -14 154 -159 158 -148 2 6 8 10
13 6 5 -3 9 -1 9 4 0 5 31 41 69 81 38 40 75 85 81 102 7 16 16 29 20 29 4 0
10 9 13 20 3 11 4 20 4 19 -1 0 -20 -19 -42 -43z"/>
<path d="M1293 972 c10 -10 14 -22 10 -27 -5 -4 -2 -5 5 -1 6 4 12 3 12 -3 0
-5 19 -22 43 -38 60 -41 78 -49 37 -16 -19 15 -52 44 -72 65 -37 38 -66 54
-35 20z"/>
<path d="M1213 732 c-24 -4 -73 -55 -73 -77 0 -8 5 -26 10 -41 7 -18 7 -30 0
-39 -8 -10 -6 -23 9 -50 11 -20 17 -44 13 -53 -4 -11 -7 -12 -10 -4 -6 19 -54
38 -92 37 -47 -2 -82 -14 -75 -26 4 -5 2 -9 -4 -9 -10 0 -15 -169 -5 -195 12
-31 24 -1 24 61 0 80 19 86 21 7 1 -32 4 -46 6 -31 6 39 25 35 21 -5 -2 -24
-8 -33 -25 -35 -25 -4 -30 -17 -10 -25 23 -9 100 2 108 15 5 7 9 9 9 3 0 -5 4
-3 10 5 8 12 11 12 27 -1 23 -21 57 -29 74 -18 8 4 19 3 26 -3 17 -14 63 26
63 54 0 11 4 17 9 14 5 -4 22 -1 37 5 16 5 26 7 22 4 -12 -12 13 -62 37 -73
12 -6 26 -8 29 -4 10 10 36 11 36 2 0 -14 41 -3 61 16 17 15 21 16 37 2 24
-22 44 -26 70 -17 14 5 22 5 22 -2 0 -14 42 -1 58 19 6 9 12 42 12 74 0 32 4
58 9 58 13 0 21 -26 21 -70 0 -21 7 -45 15 -53 8 -8 12 -17 10 -19 -7 -6 25
-8 53 -2 14 3 22 12 22 24 0 11 4 20 8 20 5 0 6 21 2 48 -8 48 4 73 25 50 7
-7 6 -12 -2 -15 -7 -2 -10 -10 -8 -16 2 -7 6 -29 8 -50 7 -55 31 -73 98 -75
44 -1 61 3 78 19 25 23 26 33 7 51 -10 9 -11 20 -5 37 5 13 7 32 3 43 -3 11 0
33 6 49 18 43 -14 69 -86 69 -29 0 -55 -4 -58 -9 -3 -4 -24 -4 -46 2 -44 12
-44 11 -40 133 1 45 -2 54 -25 73 -18 13 -33 18 -44 13 -9 -4 -31 -7 -49 -6
-17 1 -30 -2 -26 -7 3 -5 1 -9 -5 -9 -5 0 -12 4 -16 9 -3 6 -18 9 -33 7 -15
-1 -37 1 -49 5 -14 5 -33 2 -53 -8 -23 -11 -35 -12 -43 -4 -18 18 -42 13 -67
-14 l-23 -25 -11 23 c-7 12 -18 22 -26 22 -8 0 -20 3 -25 7 -6 4 -20 -7 -30
-23 -24 -35 -38 -37 -54 -5 -14 25 -62 44 -98 38z m65 -37 c13 -4 22 -14 22
-27 0 -17 -4 -19 -22 -13 -38 11 -61 11 -65 -2 -3 -7 2 -13 11 -13 9 0 16 -4
16 -10 0 -18 -29 -10 -44 12 -13 18 -16 19 -16 6 0 -20 13 -30 60 -43 24 -7
36 -17 38 -32 4 -27 -25 -37 -63 -23 -15 6 -30 8 -33 6 -5 -6 42 -26 61 -26
17 0 57 29 57 41 0 5 -12 21 -26 34 -15 14 -21 25 -14 25 36 0 62 -55 42 -87
-11 -18 -55 -32 -84 -26 -37 7 -66 39 -50 55 9 9 19 8 43 -6 21 -12 34 -15 41
-8 13 13 1 32 -20 32 -10 0 -28 7 -40 16 -46 32 -6 114 48 100 8 -3 25 -7 38
-11z m171 -75 c17 -43 31 -84 31 -89 0 -19 -31 -20 -42 -1 -17 27 -52 25 -71
-2 -12 -18 -18 -20 -28 -11 -10 10 -10 21 0 53 22 74 50 130 65 130 9 0 26
-30 45 -80z m89 62 c2 -7 -2 -11 -10 -10 -10 2 -13 -14 -15 -67 -2 -56 0 -65
8 -43 16 42 38 43 76 1 34 -38 30 -19 -6 27 l-20 25 31 33 c18 17 27 32 22 32
-5 0 -28 -18 -49 -40 -21 -22 -43 -40 -47 -40 -4 0 -8 14 -8 30 0 17 5 30 10
30 6 0 10 -8 10 -17 0 -12 11 -7 39 21 25 25 45 37 55 33 23 -9 20 -24 -14
-53 l-29 -27 29 -37 c34 -43 37 -55 15 -64 -9 -3 -27 8 -47 30 -33 36 -44 35
-50 -6 -2 -14 -10 -25 -18 -25 -12 0 -16 18 -18 93 -2 84 -1 93 14 90 10 -2
19 -9 22 -16z m170 -20 c3 -27 7 -32 28 -32 20 0 25 5 24 23 -3 38 -1 47 15
47 12 0 15 -13 13 -67 l-1 -68 -7 60 c-4 35 -7 46 -8 28 -2 -31 -4 -33 -41
-33 -37 0 -40 2 -44 33 -2 17 -4 -4 -4 -48 0 -56 2 -68 6 -40 6 38 8 40 41 40
34 0 35 -2 39 -40 3 -33 5 -36 12 -20 8 19 8 18 6 -3 -3 -37 -22 -30 -25 11
-3 32 -7 37 -28 37 -21 0 -24 -5 -24 -34 0 -38 -10 -49 -34 -40 -13 5 -16 22
-16 88 0 46 3 86 7 90 16 16 38 -1 41 -32z m150 -54 c-2 -75 -6 -93 -18 -93
-12 0 -16 18 -18 93 -3 87 -2 92 18 92 20 0 21 -5 18 -92z m-800 -195 c2 -39
-1 -63 -8 -63 -5 0 -11 25 -11 58 -1 31 -3 48 -6 37 -9 -39 -23 -40 -23 -1 0
33 3 37 23 34 20 -3 22 -9 25 -65z m87 30 c36 -54 31 -65 -10 -18 l-34 40 -1
-32 c0 -18 -4 -33 -10 -33 -5 0 -10 18 -10 40 0 33 3 40 20 40 11 0 30 -16 45
-37z m100 -68 c0 -125 -13 -134 -73 -49 l-41 57 -3 -54 c-3 -47 -6 -54 -25
-57 -22 -3 -23 0 -23 52 0 68 17 75 23 9 3 -45 4 -44 5 13 1 33 5 64 8 67 4 4
29 -23 56 -58 27 -36 53 -65 58 -65 6 0 10 37 10 85 0 68 -3 85 -15 85 -11 0
-15 -16 -17 -67 l-3 -67 -19 28 c-17 26 -17 28 -1 23 14 -6 16 -1 15 36 -3 66
-2 69 23 65 21 -3 22 -7 22 -103z m160 85 c0 -10 -14 -17 -45 -20 -32 -4 -46
-10 -48 -22 -2 -11 3 -18 12 -18 9 0 16 -4 16 -10 0 -5 -9 -10 -20 -10 -16 0
-20 7 -20 35 l0 35 47 0 c33 0 44 3 36 11 -5 5 -30 9 -54 7 l-44 -3 -3 -87
c-2 -56 1 -88 8 -88 5 0 10 18 10 40 l0 40 43 1 c23 1 34 3 25 6 -26 7 -22 25
5 21 14 -2 22 -10 22 -23 0 -16 -8 -21 -42 -23 -43 -3 -43 -3 -43 -43 0 -32
-3 -39 -20 -39 -19 0 -20 7 -20 105 l0 106 68 -3 c52 -2 67 -6 67 -18z m73
-47 l-2 -68 -3 58 c-6 88 -23 68 -23 -28 0 -81 14 -116 23 -57 3 22 4 20 6
-10 1 -31 -2 -38 -18 -38 -17 0 -20 9 -23 78 -4 110 -1 132 23 132 17 0 19 -7
17 -67z m96 27 c28 -42 31 -50 19 -50 -5 0 -18 16 -31 35 -28 44 -40 44 -45 3
-3 -29 -4 -27 -5 10 -2 35 1 42 17 42 10 0 30 -17 45 -40z m101 -65 c0 -92 -2
-100 -20 -103 -14 -2 -31 14 -60 55 l-40 58 -3 -57 c-3 -50 -6 -58 -22 -58
-18 0 -20 7 -18 58 2 56 2 56 5 10 6 -70 22 -58 25 19 l3 66 50 -66 c28 -37
53 -67 58 -67 4 0 7 38 7 85 0 50 -4 85 -10 85 -6 0 -10 -29 -10 -67 l0 -67
-22 23 c-16 16 -19 25 -10 28 7 3 12 22 12 47 0 49 6 58 35 54 19 -3 20 -10
20 -103z m65 39 c0 -78 -19 -79 -21 -1 -1 29 -4 40 -6 24 -5 -32 -23 -27 -23
7 0 27 7 36 32 36 16 0 18 -9 18 -66z m54 51 c-5 -11 1 -15 25 -15 l31 0 2
-82 c1 -51 3 -66 5 -38 7 72 23 73 23 1 0 -59 -1 -62 -22 -59 -21 3 -23 9 -26
86 l-3 82 -29 0 c-23 0 -30 5 -30 20 0 11 7 20 15 20 9 0 12 -6 9 -15z m146
-5 c0 -16 -7 -20 -30 -20 -23 0 -30 -4 -30 -20 0 -11 -4 -20 -10 -20 -5 0 -10
11 -10 25 0 21 5 25 30 25 54 0 31 19 -27 23 l-58 3 68 2 c61 2 67 0 67 -18z
m164 5 c6 -17 -31 -37 -49 -27 -5 3 1 9 15 13 l25 6 -26 7 c-46 13 -84 4 -87
-21 -4 -25 -22 -32 -22 -9 0 39 11 46 75 46 47 0 64 -4 69 -15z m-76 -26 c-33
-18 -21 -38 25 -41 34 -2 42 -7 42 -23 0 -16 -8 -21 -42 -23 -35 -3 -43 -7
-43 -23 0 -16 7 -19 44 -19 47 0 60 -8 47 -28 -5 -9 -28 -12 -72 -10 l-64 3
-3 54 c-5 80 11 99 18 21 l5 -65 39 -3 c21 -2 43 1 49 7 8 8 -1 11 -31 11 -41
0 -42 1 -42 35 0 34 1 35 43 37 l42 1 -41 4 c-38 4 -42 7 -46 34 -5 34 -2 39
26 39 19 -1 19 -2 4 -11z m-317 -96 c1 -32 4 -46 6 -30 6 39 23 33 23 -9 0
-31 -3 -35 -22 -32 -21 3 -23 9 -26 66 -2 38 1 62 8 62 5 0 11 -25 11 -57z"/>
<path d="M1391 659 c-5 -13 -19 -45 -30 -71 -11 -27 -16 -48 -12 -48 5 0 11 7
15 15 3 9 18 15 40 15 26 0 36 -5 41 -21 4 -11 9 -18 12 -15 6 6 -35 125 -48
140 -4 5 -12 -2 -18 -15z m34 -69 c-10 -16 -45 -12 -45 5 0 9 6 12 15 9 8 -4
15 -2 15 4 0 6 -5 12 -12 14 -7 3 -8 9 -3 18 6 10 11 6 22 -14 8 -14 11 -31 8
-36z"/>
<path d="M1830 605 c0 -43 4 -75 10 -75 6 0 10 32 10 75 0 43 -4 75 -10 75 -6
0 -10 -32 -10 -75z"/>
</g>
</svg>
